<?xml version="1.0" encoding="UTF-8" standalone="no"?>
<svg width="20px" height="20px" viewBox="0 0 20 20" version="1.1" xmlns="http://www.w3.org/2000/svg" xmlns:xlink="http://www.w3.org/1999/xlink">
    <!-- Generator: Sketch 39.1 (31720) - http://www.bohemiancoding.com/sketch -->
    <title>search</title>
    <desc>Created with Sketch.</desc>
    <defs></defs>
    <g id="Page-1" stroke="none" stroke-width="1" fill="none" fill-rule="evenodd">
        <path d="M7.51015992,1.15620555e-13 C11.6579067,9.19037128e-14 15.0203198,3.36241313 15.0203198,7.51015992 C15.0203198,11.6579067 11.6579067,15.0203198 7.51015992,15.0203198 C3.36241313,15.0203198 0,11.6579067 0,7.51015992 C0,3.36241313 3.36241313,9.19037128e-14 7.51015992,9.19037128e-14 L7.51015992,1.15620555e-13 Z M7.51015992,1.66892443 C10.7361852,1.66892443 13.3513954,4.28413464 13.3513954,7.51015992 C13.3513954,10.7361852 10.7361852,13.3513954 7.51015992,13.3513954 C4.28413464,13.3513954 1.66892443,10.7361852 1.66892443,7.51015992 C1.66892443,4.28413464 4.28413464,1.66892443 7.51015992,1.66892443 L7.51015992,1.66892443 Z M13.1094014,11.9177893 L19.7934437,18.5801356 C20.1043239,18.9125825 20.0954433,19.4317009 19.7733739,19.7533199 C19.4513045,20.0749388 18.9321742,20.0830929 18.6001627,19.7717477 L11.9161204,13.1094014 C11.6052402,12.7769545 11.6141208,12.2578361 11.9361902,11.9362171 C12.2582596,11.6145982 12.7773899,11.6064441 13.1094014,11.9177893 L13.1094014,11.9177893 Z" id="search" fill="#403F40"></path>
    </g>
</svg>